<?xml version="1.0" encoding="UTF-8"?>
<svg version="1.1" xmlns="http://www.w3.org/2000/svg" width="500" height="500">
<path d="M0 0 C165 0 330 0 500 0 C500 165 500 330 500 500 C335 500 170 500 0 500 C0 335 0 170 0 0 Z " fill="#655BC9" transform="translate(0,0)"/>
<path d="M0 0 C14.30805428 13.48502461 22.44068397 33.26741681 23.2265625 52.7109375 C23.74747924 75.00867142 17.85719374 92.27967314 9.45439148 112.61569214 C4.64393659 124.11296872 4.64393659 124.11296872 1.953125 136.2265625 C2.613125 136.2265625 3.273125 136.2265625 3.953125 136.2265625 C5.13672686 137.384619 6.31483629 138.54888139 7.46289062 139.7421875 C10.18814397 142.45672556 13.21046356 144.81571539 16.203125 147.2265625 C17.2384436 148.06707153 17.2384436 148.06707153 18.29467773 148.92456055 C21.99424214 151.90993297 25.73073212 154.83291142 29.53515625 157.68359375 C30.28442383 158.24626953 31.03369141 158.80894531 31.80566406 159.38867188 C33.23248213 160.45421431 34.66506516 161.51210026 36.10449219 162.56054688 C43.83110119 168.32263643 49.26326771 174.55052947 52.828125 183.5390625 C53.12203125 184.24095703 53.4159375 184.94285156 53.71875 185.66601562 C59.25049808 198.97519852 56.87044639 214.0736039 55.953125 228.2265625 C55.045625 228.28585937 54.138125 228.34515625 53.203125 228.40625 C49.05921869 229.45218789 48.25975928 230.82433425 45.953125 234.3515625 C42.8490543 238.93006678 39.6256767 243.09494184 35.953125 247.2265625 C31.8805038 245.49267427 28.62423452 242.72232067 25.203125 239.9765625 C23.94535331 238.98562528 22.68754109 237.99473951 21.4296875 237.00390625 C19.43437572 235.42165714 17.47737668 233.82086774 15.5390625 232.16796875 C10.76961187 228.20609442 8.12133969 227.80837845 1.953125 228.2265625 C0.963125 227.5665625 -0.026875 226.9065625 -1.046875 226.2265625 C-2.036875 226.8865625 -3.026875 227.5465625 -4.046875 228.2265625 C-6.421875 228.52734375 -6.421875 228.52734375 -9.046875 228.5390625 C-9.913125 228.55582031 -10.779375 228.57257813 -11.671875 228.58984375 C-14.046875 228.2265625 -14.046875 228.2265625 -15.83203125 227.01953125 C-17.43211635 224.65799087 -17.48015258 223.06402584 -17.484375 220.2265625 C-17.50371094 219.3603125 -17.52304687 218.4940625 -17.54296875 217.6015625 C-17.046875 215.2265625 -17.046875 215.2265625 -15.37890625 213.51953125 C-12.7181152 212.04428529 -10.24649958 211.27646864 -7.296875 210.5390625 C-6.31203125 210.28769531 -5.3271875 210.03632813 -4.3125 209.77734375 C-3.19101562 209.50470703 -3.19101562 209.50470703 -2.046875 209.2265625 C-2.046875 208.2365625 -2.046875 207.2465625 -2.046875 206.2265625 C-7.36857994 205.93093883 -7.36857994 205.93093883 -12.046875 208.2265625 C-15.046875 208.2265625 -15.046875 208.2265625 -17.234375 206.2265625 C-17.8325 205.5665625 -18.430625 204.9065625 -19.046875 204.2265625 C-19.706875 204.8865625 -20.366875 205.5465625 -21.046875 206.2265625 C-22.779375 206.443125 -22.779375 206.443125 -24.546875 206.6640625 C-25.701875 206.8496875 -26.856875 207.0353125 -28.046875 207.2265625 C-30.0609706 210.2477059 -30.31524096 211.03316267 -30.4609375 214.45703125 C-30.49960937 215.25947266 -30.53828125 216.06191406 -30.578125 216.88867188 C-30.6090625 217.72205078 -30.64 218.55542969 -30.671875 219.4140625 C-30.71054687 220.25904297 -30.74921875 221.10402344 -30.7890625 221.97460938 C-30.88323779 224.05823774 -30.96614175 226.14237003 -31.046875 228.2265625 C-33.356875 228.2265625 -35.666875 228.2265625 -38.046875 228.2265625 C-38.046875 218.6565625 -38.046875 209.0865625 -38.046875 199.2265625 C-35.736875 199.2265625 -33.426875 199.2265625 -31.046875 199.2265625 C-30.716875 200.2165625 -30.386875 201.2065625 -30.046875 202.2265625 C-29.056875 200.9065625 -28.066875 199.5865625 -27.046875 198.2265625 C-29.16999477 196.39101226 -31.29493773 194.55768247 -33.421875 192.7265625 C-34.36957764 191.90986084 -34.36957764 191.90986084 -35.33642578 191.07666016 C-39.90597491 187.15709498 -44.56255484 183.39950102 -49.3515625 179.75 C-49.91101563 179.24726563 -50.47046875 178.74453125 -51.046875 178.2265625 C-51.046875 177.5665625 -51.046875 176.9065625 -51.046875 176.2265625 C-52.05065186 176.25274658 -53.05442871 176.27893066 -54.08862305 176.3059082 C-57.82504852 176.39664418 -61.56137735 176.45389512 -65.29858398 176.5012207 C-66.91365961 176.52631209 -68.52862226 176.56039376 -70.14331055 176.60375977 C-72.46952206 176.66465536 -74.79422859 176.69282374 -77.12109375 176.71484375 C-78.19794685 176.75355339 -78.19794685 176.75355339 -79.29655457 176.79304504 C-83.24365789 176.79523611 -84.86610485 176.37461133 -87.96020508 173.84057617 C-89.70135861 171.65939788 -90.99942102 169.7975859 -92.046875 167.2265625 C-93.8721875 167.443125 -93.8721875 167.443125 -95.734375 167.6640625 C-96.41886719 167.74527344 -97.10335937 167.82648438 -97.80859375 167.91015625 C-100.08631558 168.20435086 -100.08631558 168.20435086 -102.4609375 168.75 C-112.30624865 170.56439269 -124.49577644 169.7947197 -133.046875 164.2265625 C-138.92633286 158.07985656 -140.26291549 153.30417214 -140.484375 144.9765625 C-140.7979413 137.65377541 -141.44255039 131.14620258 -145.59375 124.8984375 C-147.30631317 121.74953102 -147.58139608 119.28083028 -147.921875 115.7265625 C-148.61763124 110.53864234 -148.61763124 110.53864234 -151.421875 106.1640625 C-153.0646326 104.95155094 -154.71004929 103.74262451 -156.359375 102.5390625 C-158.69390393 99.33989323 -158.78223013 96.91565822 -158.6328125 93.0078125 C-157.50859684 87.67153549 -154.1419795 83.61236411 -151.046875 79.2265625 C-150.08222118 77.65962482 -149.14203165 76.07719054 -148.234375 74.4765625 C-147.66783203 73.49429688 -147.66783203 73.49429688 -147.08984375 72.4921875 C-143.88399563 65.52817286 -143.58074428 58.6609082 -143.109375 51.1015625 C-141.60529743 30.78775375 -137.17351969 13.68585522 -122.046875 -0.7734375 C-121.53125 -1.32 -121.015625 -1.8665625 -120.484375 -2.4296875 C-88.27713243 -33.96594585 -31.22511682 -27.05382259 0 0 Z " fill="#7E40E1" transform="translate(317.046875,132.7734375)"/>
<path d="M0 0 C14.30805428 13.48502461 22.44068397 33.26741681 23.2265625 52.7109375 C23.74747924 75.00867142 17.85719374 92.27967314 9.45439148 112.61569214 C4.64393659 124.11296872 4.64393659 124.11296872 1.953125 136.2265625 C2.613125 136.2265625 3.273125 136.2265625 3.953125 136.2265625 C5.13672686 137.384619 6.31483629 138.54888139 7.46289062 139.7421875 C10.18814397 142.45672556 13.21046356 144.81571539 16.203125 147.2265625 C17.2384436 148.06707153 17.2384436 148.06707153 18.29467773 148.92456055 C21.99424214 151.90993297 25.73073212 154.83291142 29.53515625 157.68359375 C30.28442383 158.24626953 31.03369141 158.80894531 31.80566406 159.38867188 C33.23248213 160.45421431 34.66506516 161.51210026 36.10449219 162.56054688 C43.83110119 168.32263643 49.26326771 174.55052947 52.828125 183.5390625 C53.12203125 184.24095703 53.4159375 184.94285156 53.71875 185.66601562 C59.25049808 198.97519852 56.87044639 214.0736039 55.953125 228.2265625 C55.045625 228.28585937 54.138125 228.34515625 53.203125 228.40625 C49.05921869 229.45218789 48.25975928 230.82433425 45.953125 234.3515625 C42.8490543 238.93006678 39.6256767 243.09494184 35.953125 247.2265625 C31.8805038 245.49267427 28.62423452 242.72232067 25.203125 239.9765625 C23.94535331 238.98562528 22.68754109 237.99473951 21.4296875 237.00390625 C19.43437572 235.42165714 17.47737668 233.82086774 15.5390625 232.16796875 C10.76961187 228.20609442 8.12133969 227.80837845 1.953125 228.2265625 C0.963125 227.5665625 -0.026875 226.9065625 -1.046875 226.2265625 C-2.036875 226.8865625 -3.026875 227.5465625 -4.046875 228.2265625 C-6.421875 228.52734375 -6.421875 228.52734375 -9.046875 228.5390625 C-9.913125 228.55582031 -10.779375 228.57257813 -11.671875 228.58984375 C-14.046875 228.2265625 -14.046875 228.2265625 -15.83203125 227.01953125 C-17.43211635 224.65799087 -17.48015258 223.06402584 -17.484375 220.2265625 C-17.50371094 219.3603125 -17.52304687 218.4940625 -17.54296875 217.6015625 C-17.046875 215.2265625 -17.046875 215.2265625 -15.37890625 213.51953125 C-12.7181152 212.04428529 -10.24649958 211.27646864 -7.296875 210.5390625 C-6.31203125 210.28769531 -5.3271875 210.03632813 -4.3125 209.77734375 C-3.19101562 209.50470703 -3.19101562 209.50470703 -2.046875 209.2265625 C-2.046875 208.2365625 -2.046875 207.2465625 -2.046875 206.2265625 C-7.36857994 205.93093883 -7.36857994 205.93093883 -12.046875 208.2265625 C-15.046875 208.2265625 -15.046875 208.2265625 -17.234375 206.2265625 C-17.8325 205.5665625 -18.430625 204.9065625 -19.046875 204.2265625 C-19.706875 204.8865625 -20.366875 205.5465625 -21.046875 206.2265625 C-22.779375 206.443125 -22.779375 206.443125 -24.546875 206.6640625 C-25.701875 206.8496875 -26.856875 207.0353125 -28.046875 207.2265625 C-30.0609706 210.2477059 -30.31524096 211.03316267 -30.4609375 214.45703125 C-30.49960937 215.25947266 -30.53828125 216.06191406 -30.578125 216.88867188 C-30.6090625 217.72205078 -30.64 218.55542969 -30.671875 219.4140625 C-30.71054687 220.25904297 -30.74921875 221.10402344 -30.7890625 221.97460938 C-30.88323779 224.05823774 -30.96614175 226.14237003 -31.046875 228.2265625 C-33.356875 228.2265625 -35.666875 228.2265625 -38.046875 228.2265625 C-38.046875 218.6565625 -38.046875 209.0865625 -38.046875 199.2265625 C-35.736875 199.2265625 -33.426875 199.2265625 -31.046875 199.2265625 C-30.716875 200.2165625 -30.386875 201.2065625 -30.046875 202.2265625 C-29.056875 200.9065625 -28.066875 199.5865625 -27.046875 198.2265625 C-29.16999477 196.39101226 -31.29493773 194.55768247 -33.421875 192.7265625 C-34.36957764 191.90986084 -34.36957764 191.90986084 -35.33642578 191.07666016 C-39.90597491 187.15709498 -44.56255484 183.39950102 -49.3515625 179.75 C-49.91101563 179.24726563 -50.47046875 178.74453125 -51.046875 178.2265625 C-51.046875 177.5665625 -51.046875 176.9065625 -51.046875 176.2265625 C-52.05065186 176.25274658 -53.05442871 176.27893066 -54.08862305 176.3059082 C-57.82504852 176.39664418 -61.56137735 176.45389512 -65.29858398 176.5012207 C-66.91365961 176.52631209 -68.52862226 176.56039376 -70.14331055 176.60375977 C-72.46952206 176.66465536 -74.79422859 176.69282374 -77.12109375 176.71484375 C-78.19794685 176.75355339 -78.19794685 176.75355339 -79.29655457 176.79304504 C-83.24365789 176.79523611 -84.86610485 176.37461133 -87.96020508 173.84057617 C-89.70135861 171.65939788 -90.99942102 169.7975859 -92.046875 167.2265625 C-93.8721875 167.443125 -93.8721875 167.443125 -95.734375 167.6640625 C-96.41886719 167.74527344 -97.10335937 167.82648438 -97.80859375 167.91015625 C-100.08631558 168.20435086 -100.08631558 168.20435086 -102.4609375 168.75 C-112.30624865 170.56439269 -124.49577644 169.7947197 -133.046875 164.2265625 C-138.92633286 158.07985656 -140.26291549 153.30417214 -140.484375 144.9765625 C-140.7979413 137.65377541 -141.44255039 131.14620258 -145.59375 124.8984375 C-147.30631317 121.74953102 -147.58139608 119.28083028 -147.921875 115.7265625 C-148.61763124 110.53864234 -148.61763124 110.53864234 -151.421875 106.1640625 C-153.0646326 104.95155094 -154.71004929 103.74262451 -156.359375 102.5390625 C-158.69390393 99.33989323 -158.78223013 96.91565822 -158.6328125 93.0078125 C-157.50859684 87.67153549 -154.1419795 83.61236411 -151.046875 79.2265625 C-150.08222118 77.65962482 -149.14203165 76.07719054 -148.234375 74.4765625 C-147.66783203 73.49429688 -147.66783203 73.49429688 -147.08984375 72.4921875 C-143.88399563 65.52817286 -143.58074428 58.6609082 -143.109375 51.1015625 C-141.60529743 30.78775375 -137.17351969 13.68585522 -122.046875 -0.7734375 C-121.53125 -1.32 -121.015625 -1.8665625 -120.484375 -2.4296875 C-88.27713243 -33.96594585 -31.22511682 -27.05382259 0 0 Z M-121.73046875 8.3359375 C-124.48618182 11.77477 -126.50701225 15.30114482 -128.484375 19.2265625 C-128.81421387 19.87850586 -129.14405273 20.53044922 -129.48388672 21.20214844 C-134.38774105 31.50203694 -134.80600462 42.62170781 -135.81445312 53.83398438 C-136.76919602 63.57658174 -138.34582221 72.08162261 -143.484375 80.5390625 C-144.06058594 81.50457031 -144.63679687 82.47007812 -145.23046875 83.46484375 C-147.046875 86.2265625 -147.046875 86.2265625 -149.22265625 88.90234375 C-151.22831774 91.13961854 -151.22831774 91.13961854 -151.796875 94.1015625 C-150.91306185 97.78411729 -150.06433241 98.26190966 -147.171875 100.5390625 C-142.39796895 104.30083299 -141.77697703 107.29448348 -141.046875 113.2265625 C-132.631875 113.7215625 -132.631875 113.7215625 -124.046875 114.2265625 C-124.376875 115.8765625 -124.706875 117.5265625 -125.046875 119.2265625 C-129.336875 119.5565625 -133.626875 119.8865625 -138.046875 120.2265625 C-137.22470783 123.97733647 -137.22470783 123.97733647 -136.109375 126.390625 C-133.14011584 133.26795321 -132.54508162 139.45452758 -132.63867188 146.85595703 C-132.59278908 150.89276024 -132.27857312 153.46536502 -129.71875 156.68359375 C-123.98172011 162.14383711 -116.49143874 161.56311711 -108.97900391 161.52954102 C-103.46738355 161.38972086 -98.99589387 160.61475184 -94.046875 158.2265625 C-93.27859375 157.87464844 -92.5103125 157.52273438 -91.71875 157.16015625 C-84.40688521 153.49211812 -79.94291827 148.3693085 -76.046875 141.2265625 C-74.726875 141.5565625 -73.406875 141.8865625 -72.046875 142.2265625 C-71.09419853 144.75372223 -70.86970758 145.82552661 -71.98046875 148.33984375 C-75.73547501 153.83093082 -79.82595167 158.10547835 -85.046875 162.2265625 C-84.386875 164.2065625 -83.726875 166.1865625 -83.046875 168.2265625 C-57.306875 168.2265625 -31.566875 168.2265625 -5.046875 168.2265625 C-5.376875 165.2565625 -5.706875 162.2865625 -6.046875 159.2265625 C-6.29389345 155.55943296 -6.36673083 151.90116955 -6.421875 148.2265625 C-6.47794922 146.85564453 -6.47794922 146.85564453 -6.53515625 145.45703125 C-6.72215359 130.26869151 0.1161941 115.63304867 5.578125 101.7265625 C15.40392618 76.53276665 20.79935253 54.29713837 10.203125 27.9765625 C7.41220266 21.83241897 4.16379578 16.48990097 -0.046875 11.2265625 C-0.69140625 10.39511719 -1.3359375 9.56367188 -2 8.70703125 C-8.01409818 1.45670178 -15.0011509 -3.09368379 -23.046875 -7.7734375 C-23.76746094 -8.216875 -24.48804688 -8.6603125 -25.23046875 -9.1171875 C-35.50154177 -14.94850638 -48.29109002 -15.33310707 -59.796875 -15.2734375 C-61.1080127 -15.26699219 -62.41915039 -15.26054688 -63.77001953 -15.25390625 C-84.97302749 -14.85616995 -106.63427009 -7.09232644 -121.73046875 8.3359375 Z " fill="#4A75E9" transform="translate(317.046875,132.7734375)"/>
<path d="M0 0 C4.84505578 0.10487134 7.57175618 1.05560923 11.25 4.375 C11.930625 5.674375 11.930625 5.674375 12.625 7 C14.79932523 10.17785995 16.61913937 10.1938635 20.2578125 10.93359375 C24.86914898 11.95532124 26.85865582 13.78239309 29.4375 17.6875 C30.69001609 20.03411116 31.41035169 21.9591383 32.125 24.5625 C33.63165119 28.32912797 35.87624891 29.24058605 39.25 31.375 C43.15131037 36.41156466 42.37769721 40.90618727 42.0625 47 C42.27045605 50.74320882 43.22845667 52.29851247 45.25 55.375 C45.61328125 57.4375 45.61328125 57.4375 45.5625 59.375 C45.55863281 60.014375 45.55476563 60.65375 45.55078125 61.3125 C45.25 63.375 45.25 63.375 44.21875 65.66796875 C42.96662856 69.16684037 43.23720235 71.98766227 43.4375 75.6875 C43.60642642 81.35998024 43.04881493 85.31535085 39.63671875 89.95703125 C38.25 91.375 38.25 91.375 35.25 93.375 C34.39416885 95.77824304 33.86071511 98.18709167 33.2890625 100.671875 C30.78093364 107.19678167 26.60669906 110.15656923 20.50976562 113.05371094 C19.66091797 113.42786133 18.81207031 113.80201172 17.9375 114.1875 C17.05900391 114.5784082 16.18050781 114.96931641 15.27539062 115.37207031 C7.44574405 118.65282244 -0.22540521 120.41968073 -8.75 119.375 C-11.171875 118.24609375 -11.171875 118.24609375 -12.75 116.375 C-13.140625 113.45703125 -13.140625 113.45703125 -13 110.1875 C-12.94585937 108.55748047 -12.94585937 108.55748047 -12.890625 106.89453125 C-12.84421875 106.06308594 -12.7978125 105.23164063 -12.75 104.375 C-14.14567835 104.06180856 -15.54155082 103.74948212 -16.9375 103.4375 C-17.71480469 103.26347656 -18.49210937 103.08945313 -19.29296875 102.91015625 C-20.10378906 102.73355469 -20.91460937 102.55695313 -21.75 102.375 C-22.59175781 102.11589844 -23.43351562 101.85679687 -24.30078125 101.58984375 C-26.83660387 101.10042806 -26.83660387 101.10042806 -28.8125 102.84375 C-29.451875 103.5140625 -30.09125 104.184375 -30.75 104.875 C-32.6875 106.90625 -32.6875 106.90625 -34.75 108.375 C-38.41362748 108.44707136 -39.79812391 107.33675753 -42.6796875 105.046875 C-43.67196688 104.08362507 -44.6535735 103.10927606 -45.625 102.125 C-46.13546875 101.64675781 -46.6459375 101.16851562 -47.171875 100.67578125 C-49.49003802 98.36388353 -50.74587895 97.07351834 -50.765625 93.7265625 C-49.68322197 91.22038317 -48.58903023 89.87267999 -46.625 88 C-44.06078682 85.17813861 -43.75 84.78456256 -43.75 80.75 C-44.60539252 77.86305025 -45.61072932 75.15671925 -46.75 72.375 C-47.99716797 72.30152344 -47.99716797 72.30152344 -49.26953125 72.2265625 C-50.35621094 72.15179688 -51.44289062 72.07703125 -52.5625 72 C-53.64144531 71.93039063 -54.72039062 71.86078125 -55.83203125 71.7890625 C-58.75 71.375 -58.75 71.375 -61.75 69.375 C-62.12231445 67.43554688 -62.12231445 67.43554688 -62.11328125 65.09375 C-62.11263672 64.25199219 -62.11199219 63.41023438 -62.11132812 62.54296875 C-62.09521484 61.66253906 -62.07910156 60.78210938 -62.0625 59.875 C-62.06572266 58.99457031 -62.06894531 58.11414063 -62.07226562 57.20703125 C-62.01697032 50.64197032 -62.01697032 50.64197032 -59.75 48.375 C-57.55708918 47.91837847 -55.34414111 47.554588 -53.125 47.25 C-51.34222656 46.99863281 -51.34222656 46.99863281 -49.5234375 46.7421875 C-48.60820312 46.62101562 -47.69296875 46.49984375 -46.75 46.375 C-44.49842542 41.27090283 -44.49842542 41.27090283 -43.6875 35.8125 C-45.06179756 32.65969971 -47.12389943 30.60879411 -49.5703125 28.21875 C-50.75 26.375 -50.75 26.375 -50.7578125 24.0234375 C-49.40200231 20.46049444 -47.16351397 18.12874224 -44.5 15.5 C-44.02175781 14.98953125 -43.54351562 14.4790625 -43.05078125 13.953125 C-41.609375 12.5078125 -41.609375 12.5078125 -38.75 10.375 C-34.83165204 10.40351782 -33.8895272 11.24787522 -30.9375 13.9375 C-28.49019765 16.12552742 -26.91591442 16.75144407 -23.625 16.8125 C-20.25888386 16.43245463 -18.56731982 16.04452285 -15.75 14.375 C-14.76 14.375 -13.77 14.375 -12.75 14.375 C-12.688125 13.323125 -12.62625 12.27125 -12.5625 11.1875 C-11.60613815 6.69995595 -10.18141143 5.30425366 -6.75 2.375 C-4.28003576 -0.09496424 -3.41102667 0.05168222 0 0 Z " fill="#FBF9FD" transform="translate(267.75,130.625)"/>
<path d="M0 0 C0.89525391 -0.020625 1.79050781 -0.04125 2.71289062 -0.0625 C18.37023924 -0.15293956 28.96692392 7.53940424 40.5 17.4296875 C42.76130701 19.42088193 42.76130701 19.42088193 45.8125 20.25 C47.50621521 21.88917184 49.16862015 23.56085389 50.8125 25.25 C55.06152256 29.02002135 59.41748878 32.65186527 63.8125 36.25 C64.78316406 37.04921875 65.75382812 37.8484375 66.75390625 38.671875 C72.05377623 42.80321035 75.99341719 44.8488568 82.63671875 45.78125 C84.8125 46.25 84.8125 46.25 88 48.4375 C89.8125 51.25 89.8125 51.25 90 54.75 C88.45825976 59.29407649 86.68464217 60.53126188 82.8125 63.25 C84.25503657 66.61591866 86.14514727 68.76047079 88.8125 71.25 C89.1425 68.94 89.4725 66.63 89.8125 64.25 C91.7925 64.25 93.7725 64.25 95.8125 64.25 C96.15865998 69.90394631 95.24675238 73.28006806 92.8125 78.25 C94.1325 78.25 95.4525 78.25 96.8125 78.25 C97.5546875 80.96875 97.5546875 80.96875 97.8125 84.25 C91.43194946 93.86892041 80.50754272 99.76168267 69.62890625 102.5546875 C54.65209736 105.28331798 42.2056579 102.49559886 29.41015625 94.19921875 C26.8125 92.25 26.8125 92.25 24.74609375 90.01953125 C20.4130784 85.51096095 17.05597222 84.0497976 10.84765625 83.74609375 C4.82564968 83.66719115 -1.17749696 83.87679704 -7.1875 84.25 C-7.0740625 82.95707031 -6.960625 81.66414063 -6.84375 80.33203125 C-6.28122169 70.84186378 -6.28122169 70.84186378 -9.57958984 62.20410156 C-13.26443183 58.42334849 -17.59609119 55.54577268 -22.01416016 52.68945312 C-25.35985653 50.47352122 -28.4421241 47.95557585 -31.5625 45.4375 C-32.69639381 44.54753548 -33.83177213 43.65945857 -34.96875 42.7734375 C-39.40471275 39.30285513 -43.79835988 35.7795159 -48.1875 32.25 C-46.64085161 27.20405964 -43.59665471 23.77583631 -40.1875 19.875 C-39.60589111 19.20815186 -39.02428223 18.54130371 -38.42504883 17.85424805 C-33.8633312 12.75335579 -29.16801269 8.6396399 -23.1875 5.25 C-22.4553125 4.83363281 -21.723125 4.41726563 -20.96875 3.98828125 C-14.05191052 0.31048414 -7.73000482 0.04358001 0 0 Z " fill="#5C59E8" transform="translate(139.1875,276.75)"/>
<path d="M0 0 C14.30805428 13.48502461 22.44068397 33.26741681 23.2265625 52.7109375 C23.72808065 74.17831894 18.48625253 90.79719345 10.31933594 110.38354492 C2.85778322 128.36789199 -3.02683812 146.77939788 3.28515625 166.01171875 C4.12522121 168.79719731 4.18736416 171.33761291 3.953125 174.2265625 C0.72456449 175.84084276 -2.81469782 175.42806174 -6.36450195 175.46704102 C-7.22483032 175.48003738 -8.08515869 175.49303375 -8.97155762 175.50642395 C-17.96316166 175.63306556 -26.95570285 175.68986515 -35.94799805 175.74145508 C-40.2174026 175.76823143 -44.48569546 175.81700384 -48.75463867 175.88500977 C-53.90529699 175.96685594 -59.05489393 176.00962237 -64.20616722 176.02451897 C-66.16988666 176.03678381 -68.13357008 176.06285607 -70.09691811 176.10296822 C-72.8462331 176.15633298 -75.59134271 176.15944859 -78.34106445 176.15063477 C-79.55771034 176.19142151 -79.55771034 176.19142151 -80.79893494 176.23303223 C-83.14549194 176.19424992 -84.86048674 176.08928928 -87.046875 175.2265625 C-89.22939688 172.78534139 -90.68610549 170.19365651 -92.046875 167.2265625 C-93.8721875 167.443125 -93.8721875 167.443125 -95.734375 167.6640625 C-96.41886719 167.74527344 -97.10335937 167.82648438 -97.80859375 167.91015625 C-100.08631558 168.20435086 -100.08631558 168.20435086 -102.4609375 168.75 C-112.30624865 170.56439269 -124.49577644 169.7947197 -133.046875 164.2265625 C-138.92633286 158.07985656 -140.26291549 153.30417214 -140.484375 144.9765625 C-140.7979413 137.65377541 -141.44255039 131.14620258 -145.59375 124.8984375 C-147.30631317 121.74953102 -147.58139608 119.28083028 -147.921875 115.7265625 C-148.61763124 110.53864234 -148.61763124 110.53864234 -151.421875 106.1640625 C-153.0646326 104.95155094 -154.71004929 103.74262451 -156.359375 102.5390625 C-158.69390393 99.33989323 -158.78223013 96.91565822 -158.6328125 93.0078125 C-157.50859684 87.67153549 -154.1419795 83.61236411 -151.046875 79.2265625 C-150.08222118 77.65962482 -149.14203165 76.07719054 -148.234375 74.4765625 C-147.66783203 73.49429688 -147.66783203 73.49429688 -147.08984375 72.4921875 C-143.88399563 65.52817286 -143.58074428 58.6609082 -143.109375 51.1015625 C-141.60529743 30.78775375 -137.17351969 13.68585522 -122.046875 -0.7734375 C-121.53125 -1.32 -121.015625 -1.8665625 -120.484375 -2.4296875 C-88.27713243 -33.96594585 -31.22511682 -27.05382259 0 0 Z M-121.73046875 8.3359375 C-124.48618182 11.77477 -126.50701225 15.30114482 -128.484375 19.2265625 C-128.81421387 19.87850586 -129.14405273 20.53044922 -129.48388672 21.20214844 C-134.38774105 31.50203694 -134.80600462 42.62170781 -135.81445312 53.83398438 C-136.76919602 63.57658174 -138.34582221 72.08162261 -143.484375 80.5390625 C-144.06058594 81.50457031 -144.63679687 82.47007812 -145.23046875 83.46484375 C-147.046875 86.2265625 -147.046875 86.2265625 -149.22265625 88.90234375 C-151.22831774 91.13961854 -151.22831774 91.13961854 -151.796875 94.1015625 C-150.91306185 97.78411729 -150.06433241 98.26190966 -147.171875 100.5390625 C-142.39796895 104.30083299 -141.77697703 107.29448348 -141.046875 113.2265625 C-132.631875 113.7215625 -132.631875 113.7215625 -124.046875 114.2265625 C-124.376875 115.8765625 -124.706875 117.5265625 -125.046875 119.2265625 C-129.336875 119.5565625 -133.626875 119.8865625 -138.046875 120.2265625 C-137.22470783 123.97733647 -137.22470783 123.97733647 -136.109375 126.390625 C-133.14011584 133.26795321 -132.54508162 139.45452758 -132.63867188 146.85595703 C-132.59278908 150.89276024 -132.27857312 153.46536502 -129.71875 156.68359375 C-123.98172011 162.14383711 -116.49143874 161.56311711 -108.97900391 161.52954102 C-103.46738355 161.38972086 -98.99589387 160.61475184 -94.046875 158.2265625 C-93.27859375 157.87464844 -92.5103125 157.52273438 -91.71875 157.16015625 C-84.40688521 153.49211812 -79.94291827 148.3693085 -76.046875 141.2265625 C-74.726875 141.5565625 -73.406875 141.8865625 -72.046875 142.2265625 C-71.09419853 144.75372223 -70.86970758 145.82552661 -71.98046875 148.33984375 C-75.73547501 153.83093082 -79.82595167 158.10547835 -85.046875 162.2265625 C-84.386875 164.2065625 -83.726875 166.1865625 -83.046875 168.2265625 C-57.306875 168.2265625 -31.566875 168.2265625 -5.046875 168.2265625 C-5.376875 165.2565625 -5.706875 162.2865625 -6.046875 159.2265625 C-6.29389345 155.55943296 -6.36673083 151.90116955 -6.421875 148.2265625 C-6.47794922 146.85564453 -6.47794922 146.85564453 -6.53515625 145.45703125 C-6.72215359 130.26869151 0.1161941 115.63304867 5.578125 101.7265625 C15.40392618 76.53276665 20.79935253 54.29713837 10.203125 27.9765625 C7.41220266 21.83241897 4.16379578 16.48990097 -0.046875 11.2265625 C-0.69140625 10.39511719 -1.3359375 9.56367188 -2 8.70703125 C-8.01409818 1.45670178 -15.0011509 -3.09368379 -23.046875 -7.7734375 C-23.76746094 -8.216875 -24.48804688 -8.6603125 -25.23046875 -9.1171875 C-35.50154177 -14.94850638 -48.29109002 -15.33310707 -59.796875 -15.2734375 C-61.1080127 -15.26699219 -62.41915039 -15.26054688 -63.77001953 -15.25390625 C-84.97302749 -14.85616995 -106.63427009 -7.09232644 -121.73046875 8.3359375 Z " fill="#FAF9FD" transform="translate(317.046875,132.7734375)"/>
<path d="M0 0 C4.35601621 0.48517372 7.0464372 3.34028204 10.1875 6.125 C11.35824281 7.13932909 12.53011928 8.15235117 13.703125 9.1640625 C14.55487305 9.90124512 14.55487305 9.90124512 15.42382812 10.65332031 C18.05851343 12.90439283 20.79753399 15.00935939 23.546875 17.1171875 C26.77819545 19.5972774 29.98321574 22.11012869 33.1875 24.625 C33.77007568 25.08068359 34.35265137 25.53636719 34.95288086 26.00585938 C38.69184004 28.93954521 42.36213629 31.94176556 46 35 C45.80664062 35.79277344 45.61328125 36.58554688 45.4140625 37.40234375 C43.29896436 46.87840225 42.37797952 56.20151749 41.91064453 65.90209961 C41.32470842 75.50916891 38.88760882 83.85224474 33.4375 91.875 C32.85871094 92.73867187 32.27992188 93.60234375 31.68359375 94.4921875 C31.12800781 95.31976563 30.57242188 96.14734375 30 97 C27.3567727 101.08218047 26.47794596 104.1249512 26 109 C25.67 109 25.34 109 25 109 C24.81308594 107.96617187 24.62617188 106.93234375 24.43359375 105.8671875 C23.05579807 101.08040041 19.96225127 98.97181363 16.0625 96.125 C14.69757946 95.08116995 13.33299864 94.03689555 11.96875 92.9921875 C11.29457031 92.48526367 10.62039062 91.97833984 9.92578125 91.45605469 C-4.03744575 80.89866551 -15.57364341 70.56871177 -20 53 C-22.28548942 35.82808676 -17.74248905 22.79842216 -7.5 9.19140625 C-5.08055976 6.05861518 -2.55398284 3.02373325 0 0 Z " fill="#B832C9" transform="translate(133,121)"/>
<path d="M0 0 C17.34169995 -1.40925778 30.25114479 7.42227136 43 18 C45.49546129 20.04724737 47.99712007 22.08683208 50.5 24.125 C51.17828857 24.67816895 51.85657715 25.23133789 52.55541992 25.80126953 C57.62594865 29.9219196 62.76589686 33.94476749 67.9375 37.9375 C74.68232017 43.14696702 81.30449696 48.48265588 87.85131836 53.9387207 C91.23515545 56.7520016 94.63993516 59.51652022 98.140625 62.18359375 C98.79192383 62.68157471 99.44322266 63.17955566 100.11425781 63.69262695 C101.33603914 64.62066826 102.5642248 65.54036191 103.79980469 66.44995117 C107.77157701 69.47022705 107.77157701 69.47022705 108.82128906 71.90478516 C109.06473793 74.75899033 108.21307585 75.62978276 106.421875 77.828125 C105.55429565 78.89897339 105.55429565 78.89897339 104.66918945 79.99145508 C104.03585693 80.7367749 103.40252441 81.48209473 102.75 82.25 C101.78743286 83.39408325 101.78743286 83.39408325 100.80541992 84.5612793 C91.83924262 94.95518475 81.81424553 101.79625034 68 104 C58.10224425 104.67459564 50.10493526 103.96032548 40.6953125 100.77734375 C38.06008677 99.6876418 38.06008677 99.6876418 36 101 C36.31193464 99.27073126 36.62457362 97.54158956 36.9375 95.8125 C37.11152344 94.84957031 37.28554688 93.88664062 37.46484375 92.89453125 C37.78804971 91.14638809 38.13406794 89.40195185 38.52294922 87.66723633 C39.39757565 82.77711671 39.18459915 77.82964723 39.1875 72.875 C39.20586914 71.25851563 39.20586914 71.25851563 39.22460938 69.609375 C39.24267646 59.61225496 37.92321701 50.34256548 34.3125 41 C34.04977295 40.31776367 33.7870459 39.63552734 33.51635742 38.93261719 C27.86880048 24.80623912 17.93871131 12.59726225 5.09375 4.40234375 C3.13226938 3.08859087 1.59895458 1.72707594 0 0 Z " fill="#9536D9" transform="translate(300,120)"/>
<path d="M0 0 C1.30582031 -0.00322266 2.61164063 -0.00644531 3.95703125 -0.00976562 C12.44125294 0.0374166 20.23321694 0.27339288 27.875 4.3125 C27.875 4.9725 27.875 5.6325 27.875 6.3125 C27.18792969 6.65023437 26.50085938 6.98796875 25.79296875 7.3359375 C24.89191406 7.78195313 23.99085938 8.22796875 23.0625 8.6875 C22.16917969 9.12835938 21.27585937 9.56921875 20.35546875 10.0234375 C17.72943619 11.33116905 17.72943619 11.33116905 14.875 13.3125 C12.7890625 13.5859375 12.7890625 13.5859375 10.5 13.6875 C6.13094316 14.12724273 3.81934128 14.84856909 0.875 18.3125 C0.37352262 19.81965756 -0.08143282 21.34274513 -0.5 22.875 C-1.60666294 26.6339445 -1.82099224 27.1157891 -5.3125 29.375 C-13.20868201 31.3166841 -13.20868201 31.3166841 -17.125 30.3125 C-19.10572694 28.86078709 -20.73094639 27.33924352 -22.38671875 25.52734375 C-24.09548595 24.0832031 -24.09548595 24.0832031 -26.49609375 24.33203125 C-29.94542692 25.61848389 -31.89108913 27.47654142 -34.5 30.0625 C-35.39460938 30.92359375 -36.28921875 31.7846875 -37.2109375 32.671875 C-39.38424943 35.12212949 -39.38424943 35.12212949 -39.109375 37.9296875 C-38.05518866 40.48148777 -36.98468297 41.79512787 -35 43.6875 C-32.48029291 46.47307547 -32.13197652 46.9148382 -32.0625 50.875 C-33.14127264 54.36514679 -34.0941418 57.2662127 -36.125 60.3125 C-38.25 61.1875 -38.25 61.1875 -41.125 61.3125 C-41.77162598 61.39048828 -42.41825195 61.46847656 -43.08447266 61.54882812 C-47.78759208 61.91132769 -50.55116282 61.45872705 -54.328125 58.5390625 C-55.69622006 57.36039598 -57.04512642 56.15912806 -58.375 54.9375 C-59.72962628 53.73680853 -61.08887868 52.5413122 -62.453125 51.3515625 C-63.08283203 50.80016602 -63.71253906 50.24876953 -64.36132812 49.68066406 C-66.19358341 48.12888209 -66.19358341 48.12888209 -69.046875 47.1484375 C-71.125 46.3125 -71.125 46.3125 -72.140625 44.66015625 C-72.08423697 36.18785419 -64.67844512 26.31190359 -59.125 20.3125 C-49.94120974 11.83024927 -37.88997463 7.09868657 -26.125 3.3125 C-25.33923584 3.04518066 -24.55347168 2.77786133 -23.74389648 2.50244141 C-15.80066363 0.0350781 -8.27011355 -0.10265781 0 0 Z " fill="#5D5AC7" transform="translate(257.125,117.6875)"/>
<path d="M0 0 C2.56616632 3.84924948 2.55097676 6.4349304 3 11 C5.41645782 11.16687448 5.41645782 11.16687448 8 11 C8.66 10.34 9.32 9.68 10 9 C13.14182232 9.16535907 14.76476385 9.82834119 17.3125 11.6875 C19 14 19 14 19.5 16.9375 C18.86712213 20.81387693 17.88375023 22.33807671 15 25 C11.25 26.3125 11.25 26.3125 8 27 C8 28.65 8 30.3 8 32 C13.02964252 32.29586132 15.9338496 32.0496128 20 29 C20.7425 28.13375 20.7425 28.13375 21.5 27.25 C23 26 23 26 25.5625 26.125 C28 27 28 27 30 30 C29.86170069 33.80323115 29.57596358 36.21071658 27.3125 39.3125 C24.64592242 41.25838094 22.17102591 42.13517475 19 43 C18.67 44.65 18.34 46.3 18 48 C22.37934119 47.48041715 26.68803391 46.94324258 31 46 C33 49 33 49 32.9375 52.375 C31.79156823 56.80593617 30.77360162 58.40564888 27 61 C23.914557 61.56837108 21.06832911 61.68951216 18 61 C15.89194632 59.28932655 15.01173781 58.02409341 13.8125 55.5625 C11.23373766 51.91666359 8.21338813 50.36469031 4 49 C1.22984749 48.70370185 -1.20308587 48.80022042 -4 49 C-3.67 50.65 -3.34 52.3 -3 54 C-1.7625 54.2475 -0.525 54.495 0.75 54.75 C4.60045588 55.52009118 6.59037018 56.87170866 9 60 C9.609375 63.015625 9.609375 63.015625 9.75 66.25 C9.80671875 67.32765625 9.8634375 68.4053125 9.921875 69.515625 C9.94765625 70.33546875 9.9734375 71.1553125 10 72 C12.43717258 71.72965366 12.43717258 71.72965366 15 71 C15.66 70.01 16.32 69.02 17 68 C20.0390625 67.70703125 20.0390625 67.70703125 23.625 67.8125 C24.81351562 67.83957031 26.00203125 67.86664063 27.2265625 67.89453125 C28.14179688 67.92933594 29.05703125 67.96414062 30 68 C30.1875 73.765625 30.1875 73.765625 28.5 75.875 C28.005 76.24625 27.51 76.6175 27 77 C26.34 75.68 25.68 74.36 25 73 C23.35 73 21.7 73 20 73 C20.48484276 77.64586892 20.48484276 77.64586892 22 82 C22.37453505 86.96258946 22.14142028 90.04413742 19 94 C17.515 94.495 17.515 94.495 16 95 C15.34 94.01 14.68 93.02 14 92 C12.68 92 11.36 92 10 92 C8.5995256 93.65262866 8.5995256 93.65262866 7.5625 95.8125 C5.46120184 99.3929597 4.08392652 101.60775232 0 103 C-3.08105337 103.02143341 -6.01517381 102.77992512 -9 102 C-11 100 -11 100 -11.1953125 97.3984375 C-11.17210937 96.40070313 -11.14890625 95.40296875 -11.125 94.375 C-11.10695313 93.37210937 -11.08890625 92.36921875 -11.0703125 91.3359375 C-11.04710937 90.56507813 -11.02390625 89.79421875 -11 89 C-10.19175781 88.97421875 -9.38351562 88.9484375 -8.55078125 88.921875 C-1.88972239 88.60601164 -1.88972239 88.60601164 4.25 86.25 C6.22956009 84.10792027 6.22956009 84.10792027 6.3125 81.25 C6.209375 80.5075 6.10625 79.765 6 79 C2.06924356 79.57452746 2.06924356 79.57452746 -1 82 C-2.875 82.23046875 -2.875 82.23046875 -5 82.1875 C-5.70125 82.18105469 -6.4025 82.17460937 -7.125 82.16796875 C-9 82 -9 82 -11 81 C-11 77.7 -11 74.4 -11 71 C-5.555 70.01 -5.555 70.01 0 69 C0 67.35 0 65.7 0 64 C-3.63 64 -7.26 64 -11 64 C-11 56.08 -11 48.16 -11 40 C-6.33333333 40.66666667 -1.66666667 41.33333333 3 42 C3.33 40.35 3.66 38.7 4 37 C-0.99296295 34.0554321 -5.33557626 33.36504064 -11 33 C-11 30.69 -11 28.38 -11 26 C-9.95199219 25.92652344 -9.95199219 25.92652344 -8.8828125 25.8515625 C-7.97273438 25.77679688 -7.06265625 25.70203125 -6.125 25.625 C-4.76761719 25.52058594 -4.76761719 25.52058594 -3.3828125 25.4140625 C-0.82058097 25.20431868 -0.82058097 25.20431868 1 23 C0.67958603 20.39719432 0.67958603 20.39719432 0 18 C-0.7734375 18.2475 -0.7734375 18.2475 -1.5625 18.5 C-4.72987076 19.14971708 -7.77442279 19.03011041 -11 19 C-11.0809313 16.39521117 -11.14045434 13.79293347 -11.1875 11.1875 C-11.22520508 10.08051758 -11.22520508 10.08051758 -11.26367188 8.95117188 C-11.33800749 3.47511476 -11.33800749 3.47511476 -9.61328125 1.05078125 C-6.05301302 -1.26813438 -4.13433061 -1.03358265 0 0 Z " fill="#7561CE" transform="translate(273,139)"/>
<path d="M0 0 C16.6161982 4.49086438 30.60453268 17.04950222 39.1875 31.625 C46.01085384 43.6942923 49.19866636 56.33423359 49.1875 70.1875 C49.18814453 71.01741455 49.18878906 71.8473291 49.18945312 72.70239258 C49.13332395 79.2765219 48.43655093 85.57399984 47 92 C44.2682214 90.71606032 41.94430645 89.30918785 39.58203125 87.43359375 C38.96779297 86.94826172 38.35355469 86.46292969 37.72070312 85.96289062 C37.09099609 85.45951172 36.46128906 84.95613281 35.8125 84.4375 C34.85053711 83.67663086 34.85053711 83.67663086 33.86914062 82.90039062 C29.18849649 79.18849649 29.18849649 79.18849649 28 78 C28.00914913 74.76120845 28.13333976 71.53316614 28.2578125 68.296875 C28.24834271 64.98726657 28.24834271 64.98726657 26.48828125 62.51171875 C24.50884657 59.17109802 24.83317378 56.90267186 25.0625 53.0625 C25.14887242 48.71205766 25.17276887 46.38540749 23.375 42.375 C21.06235256 39.86572208 21.06235256 39.86572208 17.9375 38.1875 C13.83524324 35.13262794 13.22955292 31.80321751 12 27 C11.67 26.01 11.34 25.02 11 24 C8.65774592 22.82887296 6.29431646 22.08106611 3.7734375 21.38671875 C-2.64259928 19.51624549 -2.64259928 19.51624549 -4.6875 16.5625 C-5.120625 15.716875 -5.55375 14.87125 -6 14 C-9.06717124 11.70417137 -9.06717124 11.70417137 -12 10 C-3.55172414 3 -3.55172414 3 1 3 C0.67 2.01 0.34 1.02 0 0 Z " fill="#A836D1" transform="translate(284,121)"/>
<path d="M0 0 C6.89223815 -1.158609 13.05399465 -1.70710158 18.9609375 2.4375 C22.40833043 5.17699611 25.64722532 8.14737787 28.88818359 11.12597656 C32.4880525 14.32049607 36.33905742 17.17679187 40.1875 20.0625 C41.5775435 21.11493435 42.96690765 22.16826682 44.35546875 23.22265625 C44.98114746 23.69719238 45.60682617 24.17172852 46.25146484 24.66064453 C48.52936247 26.40548485 50.77006735 28.19440405 53 30 C52.859375 31.80078125 52.859375 31.80078125 52 34 C49.453125 35.66796875 49.453125 35.66796875 46.25 37.1875 C45.20328125 37.69667969 44.1565625 38.20585937 43.078125 38.73046875 C33.8015891 42.5564512 21.23699985 42.37305395 11.796875 39.14453125 C9.07155356 37.40861998 7.69998764 35.76802336 6 33 C5.48239343 30.12347111 5.49513564 27.29179016 5.5 24.375 C5.31743904 16.84588182 4.00806057 10.94360648 1 4 C0.63799684 2.67416343 0.2942467 1.34250057 0 0 Z " fill="#5459C4" transform="translate(179,253)"/>
<path d="M0 0 C2.58028745 1.14679442 4.19712005 2.1916445 6.25 4.1875 C9.4619886 6.30449249 11.20108495 6.18368776 14.9296875 5.49609375 C17.99239806 4.76219896 20.99309803 3.93965687 24 3 C24.55615319 6.47424088 24.76048154 9.54658039 24 13 C21.98318317 14.93166234 19.8989315 16.08391343 17.4609375 17.4375 C11.97725722 20.91920176 7.92618527 26.83440696 6 33 C5.15532055 40.85996453 4.92849809 48.29899713 9.4453125 55.07421875 C13.0180756 59.49977706 16.41122049 63.133393 21.4375 65.875 C24 68 24 68 24.37109375 70.2421875 C24.37465145 72.52623283 24.26168331 74.73207802 24 77 C18.46043165 76.24460432 18.46043165 76.24460432 16 74.9375 C13.04429385 73.55201274 11.23222143 73.48284457 8 74 C5.67824899 75.81518716 3.95694697 77.76348918 2 80 C-1.40062014 78.59284684 -2.89229698 76.97131772 -5 74 C-4.48308594 73.40832031 -3.96617187 72.81664062 -3.43359375 72.20703125 C-2.77488281 71.41683594 -2.11617187 70.62664062 -1.4375 69.8125 C-0.77621094 69.03519531 -0.11492187 68.25789063 0.56640625 67.45703125 C2.22575719 65.130461 2.22575719 65.130461 1.87109375 62.62109375 C0.8215047 59.46291323 -0.29290607 56.35195067 -1.5 53.25 C-1.9434375 52.10015625 -2.386875 50.9503125 -2.84375 49.765625 C-3.73764601 47.13580824 -3.73764601 47.13580824 -5 46 C-7.18019479 45.60333773 -9.3696463 45.25684763 -11.5625 44.9375 C-12.76003906 44.76089844 -13.95757812 44.58429688 -15.19140625 44.40234375 C-16.11824219 44.26957031 -17.04507813 44.13679688 -18 44 C-18 41.36 -18 38.72 -18 36 C-17.11957031 35.99484375 -16.23914063 35.9896875 -15.33203125 35.984375 C-11.56246966 35.73334981 -8.53773338 35.35241021 -5 34 C-2.35501468 30.25474415 -1.27473255 26.36281703 0 22 C0.66 21.01 1.32 20.02 2 19 C2 13.75117266 -1.60537788 10.60224427 -5 7 C-3.64062915 4.1394109 -2.35479531 2.14072301 0 0 Z " fill="#645EC9" transform="translate(231,150)"/>
<path d="M0 0 C0.9075 0.78375 1.815 1.5675 2.75 2.375 C8.11567038 6.97730697 13.56295401 11.48252008 19 16 C16.78198189 25.22714988 13.46938177 33.94294723 10 42.75 C9.46045385 44.13392612 8.92138865 45.51803985 8.3828125 46.90234375 C6.01203873 52.97640837 3.5913265 59.01663475 1 65 C-2.53739322 63.44519228 -5.18484692 61.30262965 -8.125 58.8125 C-13.22680335 54.56900812 -18.5011165 50.70965893 -24 47 C-21.71060879 45.23855029 -19.52764597 43.73430086 -17 42.3125 C-12.28402858 38.67727203 -10.66428595 34.14916044 -8.9375 28.5625 C-8.628125 27.716875 -8.31875 26.87125 -8 26 C-7.01 25.67 -6.02 25.34 -5 25 C-3.87483915 23.16715557 -3.87483915 23.16715557 -3 21 C-2.65195312 20.45214844 -2.30390625 19.90429688 -1.9453125 19.33984375 C-0.61190453 16.03938354 -0.8270221 12.87011916 -0.9375 9.375 C-1.11993243 2.23986486 -1.11993243 2.23986486 0 0 Z " fill="#7F60D1" transform="translate(311,197)"/>
<path d="M0 0 C3.526875 -0.0825 7.05375 -0.165 10.6875 -0.25 C11.79053467 -0.28641602 12.89356934 -0.32283203 14.0300293 -0.36035156 C18.42275152 -0.41017298 21.26333195 -0.40231318 25.17578125 1.734375 C27.76764847 4.95339638 27.58470084 6.89333089 27.375 10.87109375 C26.90318431 13.54963073 25.95847806 15.12312519 24 17 C24.99 17.639375 25.98 18.27875 27 18.9375 C29.08104123 20.65534064 29.89945267 21.52910335 30.46875 24.1953125 C30.5226505 28.2782756 30.3225656 31.53739458 28 35 C24.37342419 37.5978246 21.91861485 38.36735109 17.48046875 38.29296875 C16.55903076 38.28547607 15.63759277 38.2779834 14.68823242 38.27026367 C13.53299072 38.24295166 12.37774902 38.21563965 11.1875 38.1875 C7.495625 38.125625 3.80375 38.06375 0 38 C0 25.46 0 12.92 0 0 Z " fill="#F7F7FC" transform="translate(242,323)"/>
<path d="M0 0 C3.196875 -0.061875 6.39375 -0.12375 9.6875 -0.1875 C11.18543091 -0.22846802 11.18543091 -0.22846802 12.71362305 -0.27026367 C17.63856627 -0.31641175 21.01784091 -0.24384952 25 3 C27 5 27 5 27.3125 8.3125 C26.98867205 12.13366982 26.22414284 13.94180359 24 17 C24.804375 17.61875 25.60875 18.2375 26.4375 18.875 C29.62169865 21.51555498 29.91784035 22.14553961 30.3125 26.25 C29.9413702 30.70355765 28.89685726 32.6333821 26 36 C22.53361873 37.72173423 19.7661203 38.24252908 15.91796875 38.1953125 C14.65762817 38.18781982 14.65762817 38.18781982 13.37182617 38.18017578 C12.32099854 38.16196777 11.2701709 38.14375977 10.1875 38.125 C6.825625 38.08375 3.46375 38.0425 0 38 C0 25.46 0 12.92 0 0 Z " fill="#F9FAFE" transform="translate(132,323)"/>
<path d="M0 0 C3.25 2.0625 3.25 2.0625 5 5 C5.1875 8.5 5.1875 8.5 4 12 C2.13864327 14.04033333 0.28504973 15.39560338 -2 17 C-0.55746343 20.36591866 1.33264727 22.51047079 4 25 C4.33 22.69 4.66 20.38 5 18 C6.98 18 8.96 18 11 18 C11.34615998 23.65394631 10.43425238 27.03006806 8 32 C9.32 32 10.64 32 12 32 C12.495 34.97 12.495 34.97 13 38 C9.1146983 38.07471734 5.75055095 37.97236506 2 37 C1.01 37.495 1.01 37.495 0 38 C-12.4426928 39.20302278 -12.4426928 39.20302278 -16.75 35.6875 C-20.20610392 31.55937587 -20.45511055 28.27928242 -20 23 C-18.20437595 20.24670979 -16.94745078 18.47372539 -14 17 C-14.33 16.13375 -14.66 15.2675 -15 14.375 C-16.03246149 10.89044246 -16.53528072 8.59402767 -16 5 C-12.12732074 -1.14287056 -6.63910942 -1.22247075 0 0 Z " fill="#F7F9FD" transform="translate(224,323)"/>
<path d="M0 0 C2.56616632 3.84924948 2.55097676 6.4349304 3 11 C5.41645782 11.16687448 5.41645782 11.16687448 8 11 C8.66 10.34 9.32 9.68 10 9 C13.14182232 9.16535907 14.76476385 9.82834119 17.3125 11.6875 C19 14 19 14 19.5 16.9375 C18.86712213 20.81387693 17.88375023 22.33807671 15 25 C11.25 26.3125 11.25 26.3125 8 27 C8 28.65 8 30.3 8 32 C13.02964252 32.29586132 15.9338496 32.0496128 20 29 C20.7425 28.13375 20.7425 28.13375 21.5 27.25 C23 26 23 26 25.5625 26.125 C28 27 28 27 30 30 C29.86436848 33.72986676 29.5426549 36.19687075 27.4375 39.3125 C24.10895941 41.61687425 21.06242294 43.06910829 17 43 C13.58359342 41.24259231 10.93219124 38.78538312 8.125 36.1875 C6.62829712 34.86770333 5.13093359 33.54865537 3.6328125 32.23046875 C2.65658936 31.33944458 2.65658936 31.33944458 1.66064453 30.43041992 C0.04436089 28.92014258 0.04436089 28.92014258 -2 28 C-1.690625 27.443125 -1.38125 26.88625 -1.0625 26.3125 C0.05761821 23.87459567 0.56037364 21.63775814 1 19 C-0.94603274 18.40929986 -0.94603274 18.40929986 -3 18 C-3.33 18.33 -3.66 18.66 -4 19 C-6.33297433 19.04092937 -8.66705225 19.04241723 -11 19 C-11.0809313 16.39521117 -11.14045434 13.79293347 -11.1875 11.1875 C-11.22520508 10.08051758 -11.22520508 10.08051758 -11.26367188 8.95117188 C-11.33800749 3.47511476 -11.33800749 3.47511476 -9.61328125 1.05078125 C-6.05301302 -1.26813438 -4.13433061 -1.03358265 0 0 Z " fill="#AF37CF" transform="translate(273,139)"/>
<path d="M0 0 C4.51315789 2.02631579 4.51315789 2.02631579 6 5 C6.08308638 6.37548156 6.10736016 7.75485796 6.09765625 9.1328125 C6.09443359 9.93847656 6.09121094 10.74414062 6.08789062 11.57421875 C6.07951172 12.41597656 6.07113281 13.25773437 6.0625 14.125 C6.05798828 14.97449219 6.05347656 15.82398438 6.04882812 16.69921875 C6.03702874 18.79950909 6.01909306 20.8997633 6 23 C7.32 23 8.64 23 10 23 C10 24.98 10 26.96 10 29 C8.741875 29.04125 7.48375 29.0825 6.1875 29.125 C5.47980469 29.14820313 4.77210938 29.17140625 4.04296875 29.1953125 C2 29 2 29 -1 27 C-1.99 27.66 -2.98 28.32 -4 29 C-6.375 29.30078125 -6.375 29.30078125 -9 29.3125 C-10.299375 29.33763672 -10.299375 29.33763672 -11.625 29.36328125 C-14 29 -14 29 -15.78515625 27.79296875 C-17.38524135 25.43142837 -17.43327758 23.83746334 -17.4375 21 C-17.45683594 20.13375 -17.47617187 19.2675 -17.49609375 18.375 C-17 16 -17 16 -15.33203125 14.29296875 C-12.6712402 12.81772279 -10.19962458 12.04990614 -7.25 11.3125 C-6.26515625 11.06113281 -5.2803125 10.80976563 -4.265625 10.55078125 C-3.51796875 10.36902344 -2.7703125 10.18726563 -2 10 C-2 9.01 -2 8.02 -2 7 C-7.32170494 6.70437633 -7.32170494 6.70437633 -12 9 C-12.99 9 -13.98 9 -15 9 C-15.66 7.35 -16.32 5.7 -17 4 C-11.34921339 0.06901801 -6.8659556 -0.98748938 0 0 Z " fill="#F7F8FD" transform="translate(317,332)"/>
<path d="M0 0 C3.89847598 0.53599811 6.05627234 1.49811187 9.03125 4.0546875 C9.75957031 4.66957031 10.48789063 5.28445312 11.23828125 5.91796875 C11.98464844 6.56378906 12.73101562 7.20960938 13.5 7.875 C17.87428875 11.61467691 22.0447548 15.05532108 27 18 C28.73828125 19.83203125 28.73828125 19.83203125 30.3125 21.8125 C32.79938546 24.8252467 35.14229996 26.85325686 38.4375 28.9375 C40.94056204 30.67855086 41.86242255 31.35263945 42.50390625 34.37109375 C42.50037216 36.63644756 42.35760879 38.76494505 42 41 C36.46043165 40.24460432 36.46043165 40.24460432 34 38.9375 C31.04429385 37.55201274 29.23222143 37.48284457 26 38 C23.67824899 39.81518716 21.95694697 41.76348918 20 44 C16.59937986 42.59284684 15.10770302 40.97131772 13 38 C13.51691406 37.40832031 14.03382813 36.81664062 14.56640625 36.20703125 C15.22511719 35.41683594 15.88382813 34.62664062 16.5625 33.8125 C17.22378906 33.03519531 17.88507813 32.25789063 18.56640625 31.45703125 C20.22575719 29.130461 20.22575719 29.130461 19.87109375 26.62109375 C18.8215047 23.46291323 17.70709393 20.35195067 16.5 17.25 C16.0565625 16.10015625 15.613125 14.9503125 15.15625 13.765625 C14.26235399 11.13580824 14.26235399 11.13580824 13 10 C10.81980521 9.60333773 8.6303537 9.25684763 6.4375 8.9375 C4.64119141 8.67259766 4.64119141 8.67259766 2.80859375 8.40234375 C1.88175781 8.26957031 0.95492187 8.13679687 0 8 C0 5.36 0 2.72 0 0 Z " fill="#933BDC" transform="translate(213,186)"/>
<path d="M0 0 C2.31 0 4.62 0 7 0 C7.33 0.99 7.66 1.98 8 3 C8.474375 2.505 8.94875 2.01 9.4375 1.5 C13.20552978 -0.70567597 16.73266411 -0.72952617 21 0 C23.50160818 1.87620613 24.61945652 3.23891303 26 6 C26.08449628 7.7404417 26.10723024 9.48409722 26.09765625 11.2265625 C26.09443359 12.2578125 26.09121094 13.2890625 26.08789062 14.3515625 C26.07951172 15.43179687 26.07113281 16.51203125 26.0625 17.625 C26.05798828 18.71296875 26.05347656 19.8009375 26.04882812 20.921875 C26.03701776 23.61463789 26.02054778 26.30729188 26 29 C23.69 29 21.38 29 19 29 C18.97494385 28.36908447 18.9498877 27.73816895 18.92407227 27.08813477 C18.80845863 24.24603175 18.68557684 21.40428917 18.5625 18.5625 C18.52318359 17.56927734 18.48386719 16.57605469 18.44335938 15.55273438 C18.40146484 14.60849609 18.35957031 13.66425781 18.31640625 12.69140625 C18.27974854 11.81685791 18.24309082 10.94230957 18.20532227 10.04125977 C18.21818934 8.0072598 18.21818934 8.0072598 17 7 C14.32941149 6.85884839 11.67567762 6.95752893 9 7 C8.2204542 9.80747455 7.8289851 12.42029808 7.68359375 15.328125 C7.64169922 16.12734375 7.59980469 16.9265625 7.55664062 17.75 C7.49766602 18.9875 7.49766602 18.9875 7.4375 20.25 C7.39431641 21.09046875 7.35113281 21.9309375 7.30664062 22.796875 C7.20091457 24.86440671 7.09998705 26.93218281 7 29 C4.69 29 2.38 29 0 29 C0 19.43 0 9.86 0 0 Z " fill="#F9FBFE" transform="translate(347,332)"/>
<path d="M0 0 C2.31 0 4.62 0 7 0 C7 1.98 7 3.96 7 6 C9.64 6 12.28 6 15 6 C15 7.98 15 9.96 15 12 C12.36 12 9.72 12 7 12 C7.33 16.95 7.66 21.9 8 27 C12.47702364 28.06537205 12.47702364 28.06537205 15 28 C15.38133299 29.9914056 15.71325582 31.99279077 16 34 C14.27152533 35.72847467 12.0426665 35.29389493 9.6875 35.375 C8.72199219 35.42398438 7.75648438 35.47296875 6.76171875 35.5234375 C4 35 4 35 1.66015625 33.05859375 C-0.62982593 28.83963834 -0.44342487 25.40037138 -0.25 20.6875 C-0.23195312 19.85154297 -0.21390625 19.01558594 -0.1953125 18.15429688 C-0.14841126 16.10236772 -0.07667411 14.05103244 0 12 C-1.32 12 -2.64 12 -4 12 C-4 10.02 -4 8.04 -4 6 C-2.68 6 -1.36 6 0 6 C0 4.02 0 2.04 0 0 Z " fill="#FAFBFE" transform="translate(185,326)"/>
<path d="M0 0 C0 12.54 0 25.08 0 38 C-6.76642336 33.48905109 -6.76642336 33.48905109 -8.8125 29.9375 C-9.21082031 29.26589844 -9.60914063 28.59429687 -10.01953125 27.90234375 C-12.37288414 23.33627658 -12.81667957 19.02334982 -12 14 C-10.11852265 9.68144124 -5.63039986 0 0 0 Z " fill="#695ECA" transform="translate(255,171)"/>
<path d="M0 0 C2.31 0 4.62 0 7 0 C7.33 0.99 7.66 1.98 8 3 C8.37125 2.505 8.7425 2.01 9.125 1.5 C11.74694393 -0.59755514 13.73842472 -0.21743835 17 0 C18.33332095 2.6666419 17.67102033 4.16680303 17 7 C15.88625 7.103125 14.7725 7.20625 13.625 7.3125 C12.42875 7.539375 11.2325 7.76625 10 8 C7.9859044 11.0211434 7.73163404 11.80660017 7.5859375 15.23046875 C7.54726563 16.03291016 7.50859375 16.83535156 7.46875 17.66210938 C7.4378125 18.49548828 7.406875 19.32886719 7.375 20.1875 C7.33632813 21.03248047 7.29765625 21.87746094 7.2578125 22.74804688 C7.16363721 24.83167524 7.08073325 26.91580753 7 29 C4.69 29 2.38 29 0 29 C0 19.43 0 9.86 0 0 Z " fill="#FBFBFE" transform="translate(279,332)"/>
<path d="M0 0 C2.64 0 5.28 0 8 0 C8 9.57 8 19.14 8 29 C5.36 29 2.72 29 0 29 C0 19.43 0 9.86 0 0 Z " fill="#ECEFFC" transform="translate(168,332)"/>
<path d="M0 0 C1.95312835 1.44253896 3.89515841 2.89516625 5.8203125 4.375 C7.90315752 5.98330714 7.90315752 5.98330714 9.8671875 7.125 C11.5 8.1875 11.5 8.1875 14 11 C14.91855143 15.3680755 15.29884351 19.91560166 12.86328125 23.82421875 C11.5 25.1875 11.5 25.1875 9 27 C8.67 25.35 8.34 23.7 8 22 C6.68 22 5.36 22 4 22 C4.99 17.38 5.98 12.76 7 8 C5.02 8 3.04 8 1 8 C1.04125 9.11375 1.0825 10.2275 1.125 11.375 C1 15 1 15 -1 17 C-2.03319813 15.7391988 -3.05124379 14.46596742 -4.0625 13.1875 C-4.91521484 12.12595703 -4.91521484 12.12595703 -5.78515625 11.04296875 C-6.38650391 10.03169922 -6.38650391 10.03169922 -7 9 C-5.76448756 5.29346269 -4.03334922 4.35084565 -1 2 C-0.67 1.34 -0.34 0.68 0 0 Z " fill="#4C77E9" transform="translate(228,333)"/>
<path d="M0 0 C2.31 0 4.62 0 7 0 C7 9.57 7 19.14 7 29 C4.69 29 2.38 29 0 29 C0 19.43 0 9.86 0 0 Z " fill="#FDFDFE" transform="translate(332,332)"/>
<path d="M0 0 C5.70480127 -0.09243891 9.22517626 0.71399808 13.5625 4.5625 C14.72633912 5.69004005 15.8788662 6.82998843 17 8 C16.0298839 10.42529024 15.33920869 11.76616252 13.1640625 13.265625 C10.65444231 14.11726506 8.9945799 14.0829232 6.375 13.75 C5.21097656 13.61851562 5.21097656 13.61851562 4.0234375 13.484375 C2 13 2 13 0 11 C-0.1953125 8.3984375 -0.1953125 8.3984375 -0.125 5.375 C-0.10695313 4.37210938 -0.08890625 3.36921875 -0.0703125 2.3359375 C-0.04710937 1.56507813 -0.02390625 0.79421875 0 0 Z " fill="#823AE3" transform="translate(262,228)"/>
<path d="M0 0 C2.12472576 -0.05386629 4.24983652 -0.09273071 6.375 -0.125 C7.55835938 -0.14820313 8.74171875 -0.17140625 9.9609375 -0.1953125 C13 0 13 0 15 2 C15.3125 5.5 15.3125 5.5 15 9 C11.47320901 11.35119399 9.97120515 11.21443452 5.8125 11.125 C4.72582031 11.10695313 3.63914063 11.08890625 2.51953125 11.0703125 C1.27236328 11.03550781 1.27236328 11.03550781 0 11 C0 7.37 0 3.74 0 0 Z " fill="#5870E8" transform="translate(139,344)"/>
<path d="M0 0 C1.93681161 -0.08107583 3.8745934 -0.13922475 5.8125 -0.1875 C6.89144531 -0.22230469 7.97039062 -0.25710938 9.08203125 -0.29296875 C12 0 12 0 13.859375 1.35546875 C15.50674289 3.73061218 15.49361113 5.17936498 15 8 C12.72155565 10.24642874 11.41124547 10.95692261 8.203125 11.29296875 C5.46875 11.1953125 2.734375 11.09765625 0 11 C0 7.37 0 3.74 0 0 Z " fill="#6A5ECB" transform="translate(250,344)"/>
<path d="M0 0 C2.86139362 1.21504031 4.97268132 2.93553314 7.375 4.90234375 C8.26703125 5.62421875 9.1590625 6.34609375 10.078125 7.08984375 C10.75359375 7.68796875 11.4290625 8.28609375 12.125 8.90234375 C12.125 9.23234375 12.125 9.56234375 12.125 9.90234375 C6.185 9.90234375 0.245 9.90234375 -5.875 9.90234375 C-6.535 8.25234375 -7.195 6.60234375 -7.875 4.90234375 C-2.47557748 -0.12893633 -2.47557748 -0.12893633 0 0 Z " fill="#635CCA" transform="translate(239.875,290.09765625)"/>
<path d="M0 0 C1.81242052 -0.02687279 3.62495233 -0.04633715 5.4375 -0.0625 C6.44683594 -0.07410156 7.45617187 -0.08570313 8.49609375 -0.09765625 C11 0 11 0 12 1 C12.1875 3.9375 12.1875 3.9375 12 7 C10 9 10 9 7.6171875 9.1953125 C6.71226562 9.17210937 5.80734375 9.14890625 4.875 9.125 C3.50988281 9.09792969 3.50988281 9.09792969 2.1171875 9.0703125 C1.41851562 9.04710937 0.71984375 9.02390625 0 9 C0 6.03 0 3.06 0 0 Z " fill="#695CCA" transform="translate(250,329)"/>
<path d="M0 0 C1.62463842 -0.05395478 3.24978541 -0.09277195 4.875 -0.125 C5.77992188 -0.14820313 6.68484375 -0.17140625 7.6171875 -0.1953125 C10 0 10 0 12 2 C12.25 4.5 12.25 4.5 12 7 C10 9 10 9 7.6171875 9.1953125 C6.71226562 9.17210937 5.80734375 9.14890625 4.875 9.125 C3.50988281 9.09792969 3.50988281 9.09792969 2.1171875 9.0703125 C1.41851562 9.04710937 0.71984375 9.02390625 0 9 C0 6.03 0 3.06 0 0 Z " fill="#5B61E9" transform="translate(140,329)"/>
<path d="M0 0 C4.76264597 0.47887665 7.22641652 2.49488642 10.8125 5.5625 C11.78832031 6.38878906 12.76414063 7.21507812 13.76953125 8.06640625 C14.50558594 8.70449219 15.24164063 9.34257812 16 10 C12.66981985 10 9.60151119 9.52103148 6.3125 9 C5.13300781 8.814375 3.95351562 8.62875 2.73828125 8.4375 C1.83464844 8.293125 0.93101562 8.14875 0 8 C0 5.36 0 2.72 0 0 Z " fill="#A239D3" transform="translate(213,186)"/>
<path d="M0 0 C4.44907205 1.48302402 6.74579392 5.08285501 9 9 C9 9.66 9 10.32 9 11 C1.61466822 11.48428405 1.61466822 11.48428405 -1.0625 9.375 C-2.30597523 6.22486274 -1.86159454 4.23097953 -1 1 C-0.67 0.67 -0.34 0.34 0 0 Z " fill="#527EEA" transform="translate(213,344)"/>
<path d="M0 0 C0.763125 0.20625 1.52625 0.4125 2.3125 0.625 C2.9375 3.5 2.9375 3.5 3.3125 6.625 C1.3125 8.625 1.3125 8.625 -1.1875 8.875 C-3.6875 8.625 -3.6875 8.625 -5.6875 6.625 C-6 4.125 -6 4.125 -5.6875 1.625 C-2.6875 -0.375 -2.6875 -0.375 0 0 Z " fill="#EAEFFC" transform="translate(336.6875,320.375)"/>
<path d="M0 0 C0.36190476 5.42857143 0.36190476 5.42857143 -1.1875 7.875 C-3.58590175 9.36366316 -5.22806071 9.29178308 -8 9 C-9 8 -9 8 -9.0625 5.4375 C-9.041875 4.633125 -9.02125 3.82875 -9 3 C-2.25 0 -2.25 0 0 0 Z " fill="#7A68D5" transform="translate(316,347)"/>
<path d="M0 0 C4.55555556 0.55555556 4.55555556 0.55555556 6 2 C6.1875 4.4375 6.1875 4.4375 6 7 C5.34 7.66 4.68 8.32 4 9 C-0.55555556 8.44444444 -0.55555556 8.44444444 -2 7 C-2.1875 4.5625 -2.1875 4.5625 -2 2 C-1.34 1.34 -0.68 0.68 0 0 Z " fill="#F4F4FD" transform="translate(170,320)"/>
<path d="M0 0 C0.33 1.32 0.66 2.64 1 4 C-2.44450737 6.29633824 -4.93812283 6.54016485 -9 7 C-9 6.34 -9 5.68 -9 5 C-9.99 4.34 -10.98 3.68 -12 3 C-7.89542386 0.01485372 -5.02254631 -0.2954439 0 0 Z " fill="#4A81E9" transform="translate(315,338)"/>
<path d="M0 0 C1.66611905 -0.042721 3.33382885 -0.04063832 5 0 C6 1 6 1 6.0625 3.5625 C6.041875 4.366875 6.02125 5.17125 6 6 C4.35 6.66 2.7 7.32 1 8 C-1 5 -1 5 -0.625 2.3125 C-0.41875 1.549375 -0.2125 0.78625 0 0 Z " fill="#5B72EA" transform="translate(216,328)"/>
<path d="M0 0 C0.33 1.98 0.66 3.96 1 6 C-3.24645065 6 -5.38524772 4.18249194 -9 2 C-4 -1.33333333 -4 -1.33333333 0 0 Z " fill="#9F47DA" transform="translate(305,186)"/>
<path d="M0 0 C1.33617352 0.97528737 2.6688751 1.95533319 4 2.9375 C4.7425 3.48277344 5.485 4.02804687 6.25 4.58984375 C6.8275 5.05519531 7.405 5.52054687 8 6 C8 6.33 8 6.66 8 7 C5.36 7 2.72 7 0 7 C0 4.69 0 2.38 0 0 Z " fill="#3A54BE" transform="translate(140,348)"/>
<path d="M0 0 C3.81684226 1.55500981 6.19195732 4.03595495 9 7 C6.36 7 3.72 7 1 7 C0.67 4.69 0.34 2.38 0 0 Z " fill="#4D57C3" transform="translate(175,239)"/>
</svg>
